# xmcd CD database file
#
# Track frame offsets:
#	150
#	38557
#	74939
#	107310
#	131632
#	170569
#
# Disc length: 2655 seconds
#
# Revision: 0
# Processed by: cddbd v1.4PL0 Copyright (c) Steve Scherf et al.
# Submitted via: CDex 1.50
#
DISCID=500a5d06
DTITLE=Terje Rypdal - Waves
DYEAR=1900
DGENRE=Jazz
TTITLE0=Per Ulv
TTITLE1=Karusel
TTITLE2=Stenskoven
TTITLE3=Waves
TTITLE4=The Dain Curse
TTITLE5=Charisma
EXTD=
EXTT0=
EXTT1=
EXTT2=
EXTT3=
EXTT4=
EXTT5=
PLAYORDER=
